<?xml version="1.0" standalone="no"?>
<!DOCTYPE svg PUBLIC "-//W3C//DTD SVG 20010904//EN"
 "http://www.w3.org/TR/2001/REC-SVG-20010904/DTD/svg10.dtd">
<svg version="1.0" xmlns="http://www.w3.org/2000/svg"
 width="100.000000pt" height="100.000000pt" viewBox="0 0 100.000000 100.000000"
 preserveAspectRatio="xMidYMid meet">
<metadata>
Created by potrace 1.14, written by Peter Selinger 2001-2017
</metadata>
<g transform="translate(0.000000,100.000000) scale(0.100000,-0.100000)"
fill="#000000" stroke="none">
<path d="M195 981 c-46 -21 -79 -54 -94 -94 -13 -33 -4 -56 34 -86 l26 -20
-19 -38 c-31 -62 -44 -110 -44 -171 -2 -271 266 -457 515 -358 l67 27 26 -20
c33 -26 50 -26 90 -2 34 21 82 107 86 154 2 21 7 27 23 26 36 -2 44 1 54 20
11 19 0 35 -74 114 -21 22 -31 44 -34 72 -7 94 -63 197 -136 253 -102 78 -199
102 -316 78 -36 -8 -62 -8 -71 -2 -12 7 -28 -4 -70 -49 -33 -35 -59 -55 -66
-51 -20 12 -14 34 16 54 15 11 36 37 46 57 17 31 18 38 5 46 -18 11 -17 12
-64 -10z"/>
<path d="M82 138 c-5 -7 -19 -36 -30 -64 -20 -54 -16 -59 26 -35 19 10 26 10
39 0 36 -31 42 -18 20 44 -23 63 -37 77 -55 55z m28 -59 c0 -5 -7 -9 -15 -9
-9 0 -12 6 -9 15 6 15 24 11 24 -6z"/>
<path d="M198 138 c-20 -16 -36 -118 -19 -118 14 0 30 40 24 58 -3 6 -2 12 1
12 3 0 13 -17 22 -37 l16 -38 17 40 18 40 7 -37 c6 -35 19 -48 29 -30 3 4 1
32 -5 63 -8 47 -13 56 -27 52 -10 -2 -22 -17 -28 -31 l-10 -27 -14 33 c-12 29
-16 31 -31 20z"/>
<path d="M339 127 c-5 -89 2 -109 33 -103 13 3 26 5 31 5 19 2 4 20 -20 23
l-28 4 28 12 c28 12 29 32 1 32 -22 0 -17 17 8 23 28 8 16 20 -22 23 -25 2
-30 -2 -31 -19z"/>
<path d="M429 148 c-5 -13 -3 -111 2 -120 9 -15 32 1 25 18 -7 19 4 18 19 -3
13 -17 45 -27 45 -13 0 4 -7 13 -15 20 -11 9 -13 16 -5 24 12 12 13 53 2 60
-10 6 -72 18 -73 14z m51 -43 c0 -8 -4 -15 -10 -15 -5 0 -10 7 -10 15 0 8 5
15 10 15 6 0 10 -7 10 -15z"/>
<path d="M539 131 c-3 -36 0 -84 5 -97 12 -31 26 -1 26 55 0 45 -3 58 -15 58
-8 0 -16 -7 -16 -16z"/>
<path d="M612 130 c-28 -26 -28 -64 -1 -91 24 -24 62 -22 67 4 3 12 -2 16 -18
15 -12 -2 -27 4 -33 14 -15 23 9 51 35 42 15 -5 19 -2 16 13 -5 26 -39 28 -66
3z"/>
<path d="M743 142 c-12 -7 -33 -52 -47 -98 -4 -15 -2 -21 9 -21 8 0 15 4 15 8
0 18 42 20 61 3 27 -25 35 -10 16 33 -9 21 -19 48 -22 61 -7 23 -13 26 -32 14z
m13 -69 c-10 -10 -19 5 -10 18 6 11 8 11 12 0 2 -7 1 -15 -2 -18z"/>
<path d="M830 85 c0 -53 3 -63 15 -59 9 4 15 19 15 36 l0 29 35 -36 c19 -20
39 -34 44 -30 10 6 13 102 4 117 -2 4 -10 5 -17 2 -9 -3 -13 -18 -10 -42 3
-35 2 -36 -12 -17 -30 41 -54 65 -64 65 -6 0 -10 -28 -10 -65z"/>
</g>
</svg>
